<mxfile host="65bd71144e">
    <diagram id="w1dFXFDoxOcF38E6FdQB" name="ページ1">
        <mxGraphModel dx="944" dy="583" grid="1" gridSize="10" guides="1" tooltips="1" connect="1" arrows="1" fold="1" page="1" pageScale="1" pageWidth="2336" pageHeight="1654" math="0" shadow="0">
            <root>
                <mxCell id="0"/>
                <mxCell id="1" parent="0"/>
                <mxCell id="19" value="" style="rounded=1;whiteSpace=wrap;html=1;fontSize=16;fontColor=#000000;labelBackgroundColor=default;fillColor=none;" parent="1" vertex="1">
                    <mxGeometry x="752.5" y="620" width="607.5" height="300" as="geometry"/>
                </mxCell>
                <mxCell id="14" value="AWS Cloud" style="sketch=0;outlineConnect=0;gradientColor=none;html=1;whiteSpace=wrap;fontSize=12;fontStyle=0;shape=mxgraph.aws4.group;grIcon=mxgraph.aws4.group_aws_cloud;strokeColor=#AAB7B8;fillColor=none;verticalAlign=top;align=left;spacingLeft=30;fontColor=#000000;dashed=0;" parent="1" vertex="1">
                    <mxGeometry x="610" y="510" width="1220" height="490" as="geometry"/>
                </mxCell>
                <mxCell id="7" style="edgeStyle=none;html=1;fontColor=#000000;" parent="1" source="3" target="2" edge="1">
                    <mxGeometry relative="1" as="geometry"/>
                </mxCell>
                <mxCell id="3" value="ローカル環境" style="shape=mxgraph.signs.tech.computer;html=1;pointerEvents=1;fillColor=#000000;strokeColor=none;verticalLabelPosition=bottom;verticalAlign=top;align=center;fontSize=14;fontColor=#000000;" parent="1" vertex="1">
                    <mxGeometry x="360" y="268.5" width="98" height="98" as="geometry"/>
                </mxCell>
                <mxCell id="4" value="EC2" style="sketch=0;points=[[0,0,0],[0.25,0,0],[0.5,0,0],[0.75,0,0],[1,0,0],[0,1,0],[0.25,1,0],[0.5,1,0],[0.75,1,0],[1,1,0],[0,0.25,0],[0,0.5,0],[0,0.75,0],[1,0.25,0],[1,0.5,0],[1,0.75,0]];outlineConnect=0;fontColor=#000000;gradientColor=#F78E04;gradientDirection=north;fillColor=#D05C17;strokeColor=#ffffff;dashed=0;verticalLabelPosition=bottom;verticalAlign=top;align=center;html=1;fontSize=16;fontStyle=0;aspect=fixed;shape=mxgraph.aws4.resourceIcon;resIcon=mxgraph.aws4.ec2;" parent="1" vertex="1">
                    <mxGeometry x="1660" y="748" width="78" height="78" as="geometry"/>
                </mxCell>
                <mxCell id="8" value="git push ~~~" style="text;html=1;align=center;verticalAlign=middle;resizable=0;points=[];autosize=1;strokeColor=none;fillColor=none;fontSize=18;fontColor=#000000;" parent="1" vertex="1">
                    <mxGeometry x="500" y="253.5" width="120" height="30" as="geometry"/>
                </mxCell>
                <mxCell id="13" value="" style="group;fontColor=#000000;" parent="1" vertex="1" connectable="0">
                    <mxGeometry x="740" y="260" width="145" height="137" as="geometry"/>
                </mxCell>
                <mxCell id="6" value="" style="shape=image;verticalLabelPosition=bottom;verticalAlign=top;imageAspect=0;image=data:image/png,iVBORw0KGgoAAAANSUhEUgAAASwAAADhCAIAAAD9Hh/8AAAAGXRFWHRTb2Z0d2FyZQBBZG9iZSBJbWFnZVJlYWR5ccllPAAAAyBpVFh0WE1MOmNvbS5hZG9iZS54bXAAAAAAADw/eHBhY2tldCBiZWdpbj0i77u/IiBpZD0iVzVNME1wQ2VoaUh6cmVTek5UY3prYzlkIj8+IDx4OnhtcG1ldGEgeG1sbnM6eD0iYWRvYmU6bnM6bWV0YS8iIHg6eG1wdGs9IkFkb2JlIFhNUCBDb3JlIDUuMC1jMDYwIDYxLjEzNDc3NywgMjAxMC8wMi8xMi0xNzozMjowMCAgICAgICAgIj4gPHJkZjpSREYgeG1sbnM6cmRmPSJodHRwOi8vd3d3LnczLm9yZy8xOTk5LzAyLzIyLXJkZi1zeW50YXgtbnMjIj4gPHJkZjpEZXNjcmlwdGlvbiByZGY6YWJvdXQ9IiIgeG1sbnM6eG1wPSJodHRwOi8vbnMuYWRvYmUuY29tL3hhcC8xLjAvIiB4bWxuczp4bXBNTT0iaHR0cDovL25zLmFkb2JlLmNvbS94YXAvMS4wL21tLyIgeG1sbnM6c3RSZWY9Imh0dHA6Ly9ucy5hZG9iZS5jb20veGFwLzEuMC9zVHlwZS9SZXNvdXJjZVJlZiMiIHhtcDpDcmVhdG9yVG9vbD0iQWRvYmUgUGhvdG9zaG9wIENTNSBXaW5kb3dzIiB4bXBNTTpJbnN0YW5jZUlEPSJ4bXAuaWlkOjZBNkM5M0VCNTQ2QzExRTlBN0Q4QTlGM0FCNEFCRTIyIiB4bXBNTTpEb2N1bWVudElEPSJ4bXAuZGlkOjZBNkM5M0VDNTQ2QzExRTlBN0Q4QTlGM0FCNEFCRTIyIj4gPHhtcE1NOkRlcml2ZWRGcm9tIHN0UmVmOmluc3RhbmNlSUQ9InhtcC5paWQ6NkE2QzkzRTk1NDZDMTFFOUE3RDhBOUYzQUI0QUJFMjIiIHN0UmVmOmRvY3VtZW50SUQ9InhtcC5kaWQ6NkE2QzkzRUE1NDZDMTFFOUE3RDhBOUYzQUI0QUJFMjIiLz4gPC9yZGY6RGVzY3JpcHRpb24+IDwvcmRmOlJERj4gPC94OnhtcG1ldGE+IDw/eHBhY2tldCBlbmQ9InIiPz7he0fPAABBEUlEQVR42uxdB2Bc1ZW9b5pGo957s2TJcq9ywzY2tgHb2PSSQAi7JNmEkLAkIZWF1N1NNiEJIY3dQEjoYMAFjG1ccC9yUbfVex9pNL2+vff/0ajL6hj8Tn6MpPnz58/777x77n333cc45yAgIPDJQSGaQEBAkFBAQJBQQEBAkFBAQJBQQEBAkFBAQJBQQEBAkFBAQJBQQEBAkFBAQJBQQEBAkFBAQJBQQEBAkFBAQJBQQEBAkFBAQJBQQEBAkFBAQJBQQEBAkFBAQJBQQEBAkFBAQJBQQEBAkFBA4DMHlWiC4eHygMMFDg9wDmolaKRDQECQcBLh9kCnjY4OC7RboBUPIzSbuYdDhI5FBwAdgRDqLx1aYqaAgCDhxKDVDE1GKGyGk7VwogaKmoCjXleAkoGCMYb85IBUxH/RKmZE8OUpbFkSLIgnTsYFifYTGCOY2IsCYXJAWTs8f4q/UwQmO9OowE95BROHMtXuArsbtCq+MZN9dSnMjIYwf9GWAoKEoxefpe3wXiH86RQ3OZhOjUavzwlc+r+vjdAg9n2dbKPNBUrgDyxiX1gIGeGgVYt+JSBIODLoLfDhZfjNEV7ewQI0JDt7kxNtHRJMpQC1AlRK4h7+xYl/d2Oz0d+Vih5C4plmJ0Tr4Osr4NaZkBAiupaAIOGV0GiEPxyH588Q9/xUPXbP6SZGRQaQmxcdAEFaHqxhgRpindHOjQ7WZedtZtbQBS1mOl+jIPMowylp1E1Z8JMNkBomepeAIOHQqDPATw/AjiJy/Hz6E+mHbTEtHKaF8evS2A0ZkB4++NtbjLC3DA5V8LJ2hs4kktY3b+GRrrMsCX61CTIiRAcTECQclEJm+N77sKeUjJvMQGSRww2JwTA3Dh5aBKvSRnqpi41kS3ProLqDJKt8NTKnLpgfD3+8VdhDAUHCAbA54emP+CvnGWdeJxA1JJJnaSK/fwG7ddZYrnmgHF7M5ceqmNXlNYlcmslYlcb/sJVF6EQ3ExAk7IUXzsLPDpLnppIy9vCHUB1syOC/uJEcvzEDG/En++HdImjsAn81/YrWFbn94EL44TqRZCMgSNiN/eXw6Lu8y87kOUCUoNGB8G9L6ZgQvJ0Pvz0Gl9vBX4r0uDwUWf3JBv7AQia6moAgIdR0wt2vQk2H1y4RQ5Tw3zfB3XMn8lOOVcNX3qHJD/lTUOuGavmLd7IlSaKzCQyOa2gVxTNHobmLTJMMlItfyRmcgY1GOFULe0vhZA39PCqsTIEfXE8M9EiDm5qB0c7+5yhxXkBgUFwruaPl7XC8mrLMNNK0u9EO22bxx1cNohKPVsM/z8PRSl5rgIRgtjoNNs+AFSkw8vjK5+ZDcQv/00kW6EfT+h4PlLTAkUpYmy76m8A1LEe//T68U0jmSM7D1ijgw38dZB7vQBk8/j6v7WRaFUVu8HwKeCrg8wvgjlmwPKVnXn54tJjg5hd4k4mR4eXAGaxOhRfvoiQbAYFrUY6ipERXzeLwZpkZbfClHEgakFlmdsBju6HVxIL8yF1EvuG/wX6gUcHfzpKn96dTcLl1RJ8Y5g//fh2zOeWBjshc0AwXGkR/E7hWSbizmIgnz0kgH1JD+efn96Sq+XC6jtbvqrqbxO6i8Cm1EYMQLeit8L098N0POFrUVvMVPhHZuzkb5sVT9gyJfvQMHbC9SPQ3gWuVhLm15ATK6Sxo7r68lMUOtvzvfANNssvmEn+YFUt52CYHJXPLvAr3R4+RffVd+NkB8vE8wwr5YA18cwV9nGwMrQ7IbwKxbkzgWiRhlx3K9BSS8blzq6cNvlYQraWPI+g33jkbnryBlkTgyRanlz8BGgrt/OM8/Nu7/HfHeFHzkJ+L7t/SJOQtLcmXP1lvgapO0eUErj0S5jWSOfJp0azIIeOc/aIm+NvWGfDcNvjWKr48iRYNokCV1Sk6ip1W9uP97IkP4PU8aDYNfkF0JpelMFmR4sVNdjhVK0yhwLVHwjoD2Nzen9HHW5wI2pHNy6AFQ9Ki6/jIcvbLTfClHJ4aRtbSp05D/MmN/MZO/tMDNK84EPjeBfE0Xy8Db6POIFJnBK49EuqtRAO57yN/EkL4GEozZUXBzzayH2+Au+ZS5Qs0rVwSmTo1/spevQDfeR+OVA2whAqKwbq7SYiURkUqIHDNkbDNwlEQepcsAVVMU4/1S2+cDr/bCk9cz1em0vyhrVudBvlBWRv8YA8YbH3ORw0crvP6mQppnWGbWchRgWuPhO0m5nT1KMyowJ5JiDEAzeCXc9ivboavLYMZUT1/R+uKnuGp6j4nMwZROsqYkX6huhholgUErj05apPkqDzx4KFioeNPW5keCU+vh++u4T0ZodL1zzf1PxP9Rt7LybQ4hU8ocO2RUK3gvXPN3O6JmasraeVn6/s2JaMJjH5w9Z1MFBQUGIjPfgJ3lD85gS5p+TwebWbvMr8xAx2/9wop/WV/KYsK8Bo6ZLZKCWsG1MXosPYQj7xHjehyAtceCUMDQK0Cl8NLg04bc7vHTsL9pXxHMXu7AOxuFtnNQLn0qM7NZ0T3MXXoDbZbmK/wDN4GvkVA4NojoT9XK5gcEEFvsKGLZgvHUJ+3oBkNIJXoLmuncGhgdy0Zq5RuOisGvrCgP7fRF20wdLug0n4yYTouNKnANUfChCAKacpJoUiSs3Xc5mLBI3uvXAmq3czfK2LvFMOxSvBTs1Ct91Uks93NV6WyW7JgZiwsT+7PLuTnuQZvMJYqlCohXmxZIXANkjAniRbXNhpBKU0knKtnbRYqLTMQ/QI2aC0Zg10lsKuY1mEg5YK0zDfpb3ZAajjcPQe2ZsPMmME/2uqAgxVco2KyNMXbWBgvzKDAtUfC2CA0hlSlF6SJO7MTCpogM/IKs4V4dlEzf2o/vFvIag1UJD9A6SWqxQE6Ddy/gBYr3Th9SFKh7a3uAHxvlDRf7wEI8ePz4gQJBa49EiIWJcC5RrDYaZ8zpNPbhXxTllR7oi8Sg6XEGkm44pkfXKa8U381pWvLoBWGLr4ug902GzZn0SLDYWB3w45LXKdmXLqkVgXZ0WKvGIFrlYQrU9lr+ZR7rZBSXg5XECevS+m/AdPyFJq9oKRQaeulDivz0Qz1Z5edNj+7ey6VnEFDekXUdfE3873J4qhFQ3WwKk2YQYFBcE0s6p0bB3GBXo8PCebh7PfHwOrsf1pGBCxLppCmfKqsVz2cliDhu76UA7+8mYpWjISBSOY/n4Q2E1N2l9kP0fI1aaK/CVyrllCnhvvm0dSC0U4TBvjr4XKKtdw7r29bKODJdWBz849KmTyv4HLTFPz66fy2mQw9wJGX6D5aBa+eZ8Fabylu9CE3ZUGUmCQUGDQAcY1UW0O7d//rtPzPu/+Em+bNX7ob5sX1P7Oohb+dzwqkJfMJwbSvy8oUnh4xCiVZb+APvIHXYdruOtxZkfDqfYOHZAUErqEK3B9egm/uJs9QLZUeNdjRLeT/dycbaKCQotVSHYooHWVgjwp2NzzyLn+7AEL9GW0L46HQzhNr4OElorMJXMM+oYyNmXBzJldKtbFx4AnRwpEq9tP9fKBziCxF/xCPkFHvQc//+zC8V8RCtMRALn3Q/Dh+z1zR0wQECaWQzOPXsfmx4KUHB/TZ3ipgj+2C5olYa2t1wXc/YH87Q6ZPhptDUgj/0Q1UyFRAQJCQkBRKG1nHBHp3hkBRqlICSsdv7IDStnFducUMj+3kL50j/SnPfOBHBPnxn29kc2NFNxMQPmFf7Cjmj++i9bWa7iQYkx1WJMPtc/i9c5n/KOfTubQj2psFVEIf36voDvwgfrxBuIICgoRDAGnzo33Qae2pw21yUPRycTzcPIPm8dFmXtn6meBEDewu4WfrWHUn+DSng7ad4T9cxx5cKLYHFRAkHBoHK+D7H/DqTqZReRcX0fYvDkgMhYxwSAnls+JYdhTNDQZIh1JBSdt4dNmhXM/zGqG6g1XoAQ+tqqeasMNFFTR+cRMlditEhoyAIOHwOFMHT+3nJ2tIgvqWAqKSdHrItUPDGBtIphIPNGjIKHl3CpuL9qJoNBJ1kXs+W4dvsTggMwr+8ya4fproWgKChCNDYQtsL4CXcqHdSkavt+1CwyinknLw1sCXc0rxX7SKKkXP4lyq4OQArZrfMw8+N48tShD9SkCQcDRAhXmuHrYX8lcvUrQGtSUeI1GS2HJoG60utId86wx273xYmACROtGpBAQJx4Q2M+0feLqOn6hh+K/VQbFTXV/biE0lK1U3J12qUnBk3fIktiyZ0t8SQ0QrCggSjhsWJ60hbDBQWYq8JjhZQ7UwfK8qgIfrWISOKgjPjIZFiVTlPjGYJv0FBAQJJxh2Kfry0Fu8rI35GmhePDx9A/iryEIiFQMmon5haRtcbgOzk3dZmcODV+bBGhbqT5WjYqY24bvTyvOamN5Ka03wUKvoToI0kBLGZ8WIOO8kQiWaYFD4qUhe0pp61lN8Bum4IH5irt9sgtcuwsVGXmdgBqoRzhwuUrlqJclg/PQwf5opWZFMRTQCJrNaqcsDH1zihyugXM9Qk9ukCDAeSgXTKKQNw7UsPojjAHTLDDY9UnQNYQmnFg+8QSsDfS0UpIb8x8d7TbzaX8/A9gJe1cHk0sC0eliOu4I3EsslbqgYLUFEk/jAQrg5a1K+4JEqeCEX8hpoxgXdXTnkKweB5aoc+H8cGjzS9gE4Km2ZAV9fITIQhCWcQgT7cQY9ctTkREeRz40duzYraeNP7WX5zdBqojCsbugUOezonLaUoqSC4lYaCx5dDrHBE/bVLA545ijfVcJqOqXCxAoYasc4+R6tLqq8Wt8Fx6r4t9ew5cmidwgSTk3r9KMbI9Mx5oRslHxP7oOSViKYT2HSPIck/9DaeKRKp3hopPQAORkA0WSEv5+Dqg743vV8TuwEuGe1BvjPg7C7hFGGnapnwtNJlVS94V80zwoFkdNPmrDBu8IhA6l7pJrV74RvrYa75ogOIkg4+eADlOT2Anhk2Viu81Y+/PwAqj7ms34oOI124vmiRKqCE+5P2QIdNqLcuXrIb6JKbchVFIdIAzwZTWK7mf1oHVw3vlo1Z+rhfz6G41V0V3LqLJfCwiY7z4yEJYkQH8wi/Mk5bLPykhY4UU0ua5AfiVUqDqKAqk742QFoMpFxFhAknGpU6tlL5+ALC0f3rqOV8OSHRDB5iQZ2erOd6vP/62K2IRPiAsnj8lNSL0fThMKvwwKl7bTjxc5irmBUnRFf8nC40Ag/P8R/Po4iwtUd8MwRssloadG4IcOtTrA5yee8ay7LiqSoL94kvkpzoS7WZacY0qEKeOEsTaXKgwIK6VYzPHuM4rd3C3soAjOTim/sIK+p7+5mEBMA+7/Eg/xGSoPLbXD/q7y6i+lURD85zrFhOjy+iqeEsmGKlzYa4WIj/O4YHKmkmUl8UPLOM1tnwo/XU/2b0cLhgu/vgdfyJHmpIDoh22fH8m+vYosTh0s2MDtw9IEXc+GVizQceJdreQAN5j/uGaROj8CooHz66adFKwyFDy4hhVi/UcrkgNpOtmnGiK5gssO3dkNug1eFeqSipttm8Z9sYBkR3kpQQwEVYEYEKdW6TgoIBfhREX4kwKVWCNVSldTR4i+nyaBR3FXpZeCSJPjFjQxHhOHzDdAw0jqvRBpBzkm7MjLJS+xyoHHmd89hKhEvHQcUoglGLR4Y7CmFXx6+8pluDxyt4vvKaHJfZiBiXRo8dQOLG/HOMHNj4Wcb4cbppAbl3HFk0btF/Ezd6CRMaRvsLgGjw1vnCvXwzBj+1HpYMWIyh+vgsZVw33waCGT9hBI6v4m9kQ9CTgkSTlWcpruroRL7ey78+fQVup7BBr/+mKyErFxRhc6QFjpFj7IAaXYMfG05y4z01qRCShe2sN3F/XXy8Hg9j+c3eiuC4+iAP3zverZilDMNKJ6/uwbmx4Jv82M0kr87xtF1FBAknJLG6lam2APRpPzxBPuPvUPyAO3V6Vqqt++n9P4aGQDfWc3jRubLNZmoc39w2fvrqjR4aDGzu+SdMsgWHa4ahTFEM3iyhtnc9EbkT4sZHl0BN2WOdNnxqxdRynK7mz4uQge/3Az+Ki4PAXiFBiN7pxDcwhgKEk4B7psHFifvJiRVx3j1Invwjf6b18tAq3WggisUXhOqUsDSJFibPqJen9cID7zG/3CCPfE+/PkUlw3OzZm0Vtgs2RytGgqbadnHCHGqhqYZNdLN2FywJJGjTzvCxJfHdvH/OgTPHGX/8ibtaYXIjISts2h6w7dfwM5i7hEkFCScAsxPYN9axbqs3s5Ha+3dcKiCfWMHPPE+b7f0OdnsgA8vM63S6w2iAblzzhX2Y5OR3wyP7uD5zczmpDnD7QUsVyJ5ahhszJTMkTSTbnex4hZmGpkOvNBIFXHk8EmXDW6bPaIdNRDf3Ml3FDG9hci/r4ztKqJJFMRXcqQyWVJDKBnk1rMOi+gggoSTDzVD34ycOoujR4yhOqzphO2F7K6X4Tvvk4C0uug1q4sm5ZTdu8qEamH1CCbZi1uIgZfbGNoZef1+hxX5QxfEX7OjWXoELbYAKZmm1kB5bVcEilgksywX8U4CNDA/bsgktd741vuwq5ihA6mUpuldbvpE+YunhUNyCPd5hsjMvEZhDMcIMVk/msAMQJAGvrAY4kLYN3f0ZDzjv043zQfWdLKPyiHEjwVpucfD5A1kuHRCUnBPZTeQ6pS+eoEmIe6e27PPzOVW+Pp7/FJrT+0pZPLMGO7bUy0+iE+PgDoDWSG0sZV6/uI5yI5icoXFQYHkaTRCRYf30/HM6ZF9tqahbJ48qDHwO2YzNLY+fO8DeK+QvqOie2MprYq2tZFdXEZ7XbFSPV1Q9lGrDUxwUJBwiuCvoh1Co++Df3uHLEOAxhvtUDHqka0maDbir7Qpmnf2jJP3ldBrKrzGAF94HRq7qC8fKIef3wgpoVDejtqPtpGRGSjvlrEskf/HOuZjaagfyVq3ZAnx4h029vpFKdV76O6PN0ZV5JxeDxDfGxfUZ23U9z7gO4qRP+zv5/ivbmY3ZtIfn9wLbxeSffMxELXxn26DrOieuCjeM35HZ3ekCr8Ol6NGAoKEUwA0L8uS4e37KWz4tzNUBFHXTUXKwB5gP9UqNJ7eX00OeOMiXGyAIC312oMV1OPvnMVfzGV5Td68bTzwmovi+TO3oP7suVSIP4sM8JJQjvdQFcaReB3d3EClHBMIAd35qx9e4gfLWaeV1KnBwx7bxX+/lX1UCu8UkYjtzcDfbYVbsr17WsnAYcV3WfzitZ2iXwgSTjmQHo9dR8mTr+fDi2fJPdNI+Z9yYhfr1V/lRXo+Q4pqEHVmKAN5odSxKnSoaGmvSuFdy9flgIXxxIfs6L58ZtIUBRuEXaNR1dx3iXAdkz8Ur4M602hn332fZl8cvRhodsIfboE7Zg2Ipvb9aCbCC4KEnwhQKGZGwePXwYMLadXf+QYycWVt5PKhxUOXjzq8NEnYaemxoitTYXkyLc+TiyyiddJbvbyVZyDnxPLfbunPQHIRHRSl9JHQV3jqimZQrfSSCv9FpqGVkzE/HnKSSB4j2fAlJCQOJT1DBseT+bPb2O2zacVTP3SYe2Qw/oAji5CigoSfGOQS3YkhsCqVZuGcUoHgD4rhR/uJZtih8dey9p7z08Lhv26Gr77L6w3enFK50xMD7TArGn67mc0cbNWi3kKT+PI8h5tTlGhJAl3NMXRgBunXaOCn6pjeRmISHdfqLm50MN+rP96AziffW8pkivaYVg4ddo53cufsPiElH8o7uNvjYys6q7yPjRYQJJx6KKRlr77lgtdNA7vTG/mUg/tof+TejGRYkgi/u4V9bQdv6fJuQcOklfszouHXW/i8uMG7c02ntCZYIiFebU4Mf2QFzIoZLiyJ1+mwsH/fBYcqaaTQqCG/EVqNAN1mNkQLz2xhj77LD1YwpuixgZ02/j+baUfxobLMj9M6wx5LmB4uKDjWniOaYJIQoaNMUVkrIj+77ChWeW/GrkiBZ7fQPsEOKcqPrldWONpAvjCBDdWdqzugvM2rDJGEmZFsQTwt/A0c+iATHYoHl7dGxeftdDFksquXiA3VwrO3stWp0vap0mkdVv7LTfD5+UPuUUVTlGbWKyrLlyaLvTcECa8yoEnEfinP4CkU0G6Gt/P7dFK0hyhf0dpgD241w4xI/sxWvjCRDdWVGwxUXEOt8loe9C1Tw0c0546YFUNrkTwS8fw1sLOE1xn6nIA8fO5WNK00L9Jlg19uYvcvYMOUwHntIsWWoDt4szBBqkwnIOToVQXslLfNhpfOc62aDBuau+M1cKKWL0/qIRkS6YYM2P0QazHCAiqhz4YxJqgndxbzQA2dYXMTYXKSRnoz69LZu4Vwuo6KU6BxO17D9pbCvyzuk0YXpoM/3wGFTZAWBmkR3kn5QdFiomodKLZli41i+/ZZTC2WFApLeLUBO+jsGFgzjclRE+QbSrjfHukfzFQrKIls/XSIDhiOgcif3x2nWqDyOTYnrJ7GcxJHmqOSGgZLkrif0hutDVDDrz6mTan6ITkENk4nv9RvWEZ9ezflJMgMxAtGBsCts/pMIQoIEl4tQH/v33LIG2TdQZKzdeyJDwaJnQzfg9EV/M1RXtnujetYnbTSd+N0phqxE4Yn3jMXsqMlDSml0ZnsVPqtXN//TOWVesRP9sOpWvCFY+1u+PpyoUUFCa/axmWUWHPvHAp7ym3t4vBeEXz9veEmFfohvxke2QFHKrwxEnmmfUs2jLbyZ2Yk25rNw7TekAzyuaQFHnyd5zaM4iLfeR9eySMxLLPfzcnbvHvelakrIEj4iSFcB0+sgfggb9eXJ+53lcBtL/ETNVd++5v5/KE3+cVGb1UYoHQ2vm0mf2T5iFZF9RsRvryUdK/H451kR+bUGNiDb8BfT4PzSoNCSQu/+2VAxxKVsHcWg9NkyR+2UlBHQJDwKvYMgVYt/GoT2Fw9de3wv4XN7Mvb4ZH3eGHTIO/ycNhfBp9/Db0v1mamXHC536OGXJrEvrq0J6V7VNAo2ZNrKZIpl8lg3gQa+MUBuOsVeKeQQiwDUd6GwpXf9xpDH9LZy6E1O+C3t0Cm2J1i/J1ElDwcBv1KHv5mM9w+eyzXsbng1fPwxIdcp+ozBygX244J4NOjmKd7RtHipFXwLSYSe25PTxYK/j09nP9sIy3PH8+M3Pl6eHw3FLWAbw4Qu4BcbDtAw7OjaWZC7hRobMvaeZOJ0txcfeNJyMDvr4WvLgV/tegm44WYopgKaFVw/0KIDGKP7aBIhk9JIs2Icp2sxtDfEvK+ad8mByxLgv+6ic2MGe+c+Lx4eOkueHQXP1XLvIs2mLcav93KTtb0uxPWb30SbVbj4n++jW2eAVrRfYQc/RRBraRViC/fy6N04Mufhu7+7eF9DujV7z3S5i2bMvlfb6coyPizUvAKSWHwz3sY3g/qT5+dl5dQDXMnIDm0WiW8/Dm2daZgoCDhp7GtGXl07z8EX8qhX9G/ki3eoODdC/liAuDXm+Gvd7D44IlMkEav8k+3wrPbqEqF0z3cnch6VdLG/N65sO9hWJ1K2lVAyNFPpwvOIC4YnroBvpIDey7DuXp+pg7qu5hS0cv0cYqFpoVDTiJflQorU1mI36SkZaJxvnUm3DidHauhNY2na6m+hm81vTwQIPdwFFiQQOW38czkEBDFtgUJPwtAyiWEwEOL4YuLKQfaYKPaFmXtvNMGiUEsLQJSwij1VCEFcSZ1bQLyLUADG9JhfTqZO5uL0nrK9RQZCvWj/LWMKAjTUtiGgcjPFiT8LKpT2eWK0NF04pJE75rCqe/q8mJikAg5Iwqyoro3hWNina4g4bUjU+EqKpF0Vd3MNTEciyYQEBAkFBAQJBS4CsDBu6r9arkZ8UiET3hVDFF9x6iJ3Xioe/KNYpJ6KxVxsrsgUMvDtbR9L5XBZ96w5FSwjveMAu0Wuhm8gbggaTND5s2qEX6iIOEngAhdnwkCvWViSkx7OKVQ5zfD+yX8QBkrbZcS2aRezjmlqmLXnx0Dm2bwDRksLXyk2yeNDTgKmBxQb4C6LqqiXWugNHG8FY/UOaIDqURNQhDVkosOomUTopyTIOGUIiZAIl23AWyzTEAHdLjhbB385ACcqQGdhlKxB82Bpp3PGtl/HoLNmZQqnRQ66rVLI7F+Zgct1zhbT0ZYThhgzGv/5U9rNlORxbNSDYuEEBwXYFoYiEoWgoRTaAn7FrRtMY3XADYa4TdH4J/nuUbJgoZdhodkkA3gjhI4VgNfW84fWsx0E/e40ABWdMC7BVSnGEk1FK982QIaFZ35/ElYmwFrp1G1KGERBQmnxBIG8t6uUEETR7k4Nj3m8sDJGqrOUtmBpo/1DoGAtFieeeUo6UDoVUdXq6Ilfz/ex05W859sZMmh463mwqW9mT6ugCPV5I72o59v60XevZKjNyE1ajhUAdWdtC9FfJBYUD8xEOsJhwP2/iV/oJ7q64UHvkzJXKMFrSfMgx/soQLYvo7LpcrzaGHQ4gX58bggFuQHrWbeakInjTk9RJXeNEBXLSuKtnBalTYuHtZ30Z5nVR2gVPbhmELazUYuwo3KU2+hZVbyWgo0m7yvSccvcWMWrEgW0lSQcPJxxz/4uQbmsw+Pr+JfXz46BmCX3V0CD77Bg/y8VlQuwosmLj2CdgW8KRP6bWRf0gJv5sPeUt5gZO6+i9lnRtMupctTxqgGkVcvnKXsUN9CJJnnIX60vw2a2fhgisH4xqA6AzR08bJ2hkK6X10cqxP+dTGtrhKhGkHCycWfTsGvDvcsusM+evDLV6gI2C/4cbYe7noZ5P1uvZ2e09afj69i6zOGC7c6PPDiGf78GfQkvcssaNNCG6zPgN9s6aHKqIaD/WVUQdjZvVRCfvhZkfyWbBYRMNx7j1bRG3sqx0lXi5TKyQWKUmvjg/Lpp58WrTAMgjXwRl7PDCEah1AtlWkZIVot8MMPeXk7k2vXywxcncZfuFPedGk4I4LicFEimx3LTtXQptly0BL5X9TKUcFelzrqIheX2mg7RJS1vuFApYC16bBtFgu4UtEaNJIp4dDURdaYd4eOjDaweyAjQjiH44JovCsgKxoWJfHevf25E9BpG9F7kbonq2HPZW89eXk2fEUq/8vtVwiN9gb6Xc9uo+WF3vX4DPxUbF8ZQ9M0KuDbD5ZDi7F7UycP7ZT4wAKyqyP0MJOD4ZHlkB3Voz9VSjhSSRtOCTUlSDi5+MH1zK/XVB4apf/Y16dExVBoNsIvD/NgrbePIidnRMFPb2SjLY60KIGmClH1ycXOkDz5jXxnEXeOuHgpSkckbWOXt3wwl6K1q9JgWsSoW+PGTCr162MdXvDDUto4UUCQcBIxOwZuyuyTTPlOAfzj/BWy2NDoFbXShLu6ezvBSB1V/kwPG8s9bM6Cbyz3SkE8dBp2qp6dqB3p29stVF7N7PIaMQdtqwYL48eSAIB+4NppPV4xSuJ6A+2O6hHWUJBwUvGd1ZJB6+5n6AI9vR8OVw5XSBu9x11FENAdtMDOPzeW3zl77PewYTpt8SuXDEWf8HIr5DeN9L0NXZSbJstOFKIBarh+Gu1MODbkJPHU0B53FlujqgNEgE+QcHKREMx+sBa06h5ziD3vX97kb+aTdRoUXXY4UO7d0BO1X0wgPLxkXLH87Gi4NZu7PNwj2R/Uw8Ut3OIcUd9HS4j3KQdy7G7ISYbY4PHcC7shg4Ro9/p7aDQJt1CQcPJx7zz43HzSb76exzn79m749VGpUG/f2rh4TlUnJcd445CcClisThvFxw1qWGbHklfplNxRHBGKm1l+ExshCS3dJPRINzPOgoUoSn1LTFDitppI4gqMDSJtbRR46gaKbewr886zMSnf5Y/H4VA5fGsV7YAd6u9N+ETTV9Li/ZlLdc2SQvtHSjqt0GamrhwbBL3L2uN78e96C0ViogP7sCUukKWFwaVW70KnVjNvNoFvnoNKCTv6l8qW/95p83KGpiUYROnG2xT+apq8sfRSAfVdkBEpEkoFCScfz22Df98Ne0vBbPcuO0CLhKx48E2aS7hrDl+WzJCK2NmRRcru/d/91DAttI+dRPL84xxZS9Sr8+LIxspxSyQnsvflC6RmsaPfkE6uoC98EurPowKQVEy2P3YX8wVpkWl4Gx+VQ5upT4EmeQsafFUeEdBiRwdMTN3e+GBK6fYWCGZEwvQIkT0jSDj5QOL9/hb45cfwz/O0A7ZKWl8nr0I4Ww9HqmgCfV06z4hg+S1crWLQPSceoutj64pbKA2aNirjtJAvvxkWSwkAJgecb6TkslAtZZyWtMKcOEjs9t+0Ghbg51WqCkpJ5dJ+g/QpKInRRFe0D7IwqnfdRGRjRADoNBPQFDHBoGjqCYoiIQUECacOT6yG9HBalNRk6lmJh6YGD04ZXuxQBW2BJP8KA7cB7d6ZjOpe874Sjns547MwvSMeCuk6Pe5iL7ujt5JxRnM6fBoNl0zihFQQ1Sp7Pp9B/yRvARGYmXTcMRveeoDfMgMSgqkLopfo9ngZhUwI0JBt9HVKp0dele8FvoSuXbhUwwIP9AlTusUq+oFI7wA1eZs6NdnAmMCeDzU7wGDtjq8ABGl6tsiN9CedifdA4nPA4eMt2uZmYx9fbsyoM/SYQfxvdJBwCIUlnHLEBbLf3gIXG+D3J/jlNma0Q5eNNKSvKIvSW86XKNrU1aeLpoTBFxdT4W1UqlnRtLG2d1CkfFFaMttipDDPjKg+a4VMdkrgliOuHg8xNqibhDFBsGYaiVu8DWXfVYBy2rddujF8byvaTOcEfP0GQ09MGP+bKEgoSPhJYV48/N8drKGLtnPAo6iVPDqHm/Zy6bBKSpXR1FxpO3d5mC/EgmRLDaNjIFAuzo9Dig/yUr2Rl+mRlkz27oL9uLRLrrfzT4+kA60l6+sRKhl/M5+hq+knCUiLHTptnI8vhuL28DZrz65p+LXQnouojCDhJ4n4YLhrLh2I4lYKk1xqhf8+zF1uJhvGdis7Vw85SWP/CMqDa2IFTRDiL0V33JAUwgYuaBpsPQSLC6K0NZl5aFqbjMzh8sZjx4aazj6EQ6MdqBG9QPiEVw2yo2BNGnxxEc3O26W8NjRdbWZ45eK4IhcNRpqBUDBv6SkuJbX29hiHQXgAkcTTbWkvtSAPxx5HQRV6voE0tm/z+vhAEZURJLwqsT6Dycml0pweHKlk2HfHBpeHtlLbU8rlFbR4tfQImBM70rfHBlKwR3bh1Aqo7YKj1SSbx4aiFn62vid/He8NdbXYs0mQ8KoDGpx16ZAW5l1whF0fNepPD3C9ZSxXu9AIL5/n6GAqupdBrEiBxSMWtyhHU8K80xtckqw4HKBgHkPWtckBB8p79ozxoGuqhVmxwiEUJLwqEaGDx1Yyed2D3GcvNrJnjlE/HhVQOv7pJJysBZ8ZTAjhN2fKUZmRYvU0Sitzd++AjQeK23L96O4Ev8veyzSa+MiLg8KWGfRNBQfHDFHeYjIbVwHJIXCsmnJi1NIUuUNKgsEOOy1ipJGMyg7474NU9ylMx2TL4/DA5+axLy5io1oN6K8m44xXs7noTvC97RZKcwnxp8nGkVyqzQIfV1HhRl9aHBr52bG0zFdAkPDqhVZNdQrRnUMbgpzEA73EY1XQYOTTwhkakGFcKZOdSoM+vQ/eLuRhOm/yDFJoaRL/xkpaXTXam4kJpPhQg9HrpiInkYclLcSlUH8YpswMTbG0wc5itOTg29kbhwP0M++ZB4FqsZ+hIOFVDCbNXoT5c/Sj5IJrcmHPvCZ2sIwoin9RSYec6eLxEEvR5lxuhb+fh6f289I2Fhng7eNWBySF8qfWwfLkMfb6qADKHW81S+SX7CEK1IJmyoNFjjvdzC6l/uDfUfQa7ZSGjuefa6BSpfizRuWlm/xdts2EzEjBwHF3ElHycAqAvPr5Acr5NjupQozc4ihNLS5KUluXTtFFOXSJBgrtUnELHKzgjUYW7u9dwYhPCekRG8SfXAt3zBlXr0ebtr+M1sLLglkeKexSdkGQH1nLyACeEMqMVqIfHugBKhR0277QC34dVLCLEqnohoAg4acJvz5ChXebjCT8fFWAkXKoVNEMdi97koSigoykunsBsUvKCJ0eAd+7HjbPmIA7aTbD/lKaLbS5e+SlrDDdHu+GbQopx03J+pQzlAtyRwdQkailSeKRChJ+CvFmPn/uOCvTE6n8lFcO62OPR1mIpMUe/+gKWJHCJ0r84Q0cr4Lcemgyk5lVsuFuRjbF+Ba8E9l0j6H0sIAg4dWCcj3//TE4XsPqO0kEqpU9O0DIK5h82z/godNQad0tM/i/LoEQ7cT7XlUd/HAlqzNQxqmcV+C9k27iyTeDxlCrIgm6OAGuTxfPUJDwM4G9pbCvlNcZWLuFak8Y7XSgl4isC5LWRoTrIMIf0sL5nXPY7JhJvBN0BS+10bokvZXuAbUxEtImLZLUqcn06VQ0jRGpIz2cGCoenSDhZw4FTby8gzUaORpG5EB0AIsPIbGHPT4lbKpvBm+gxQytRtDbKL0biRcTSHVuREqaIKGAwGcZIm1NQECQUEBAkFBAQECQUEBAkFBAQECQUEBAkFBAQECQUEBAkFBAQECQUEBAkFBAQECQUEBAkFBAQECQUEBAkFBAQECQUEBAkFBAQECQUEBAkFBAQECQUEBAkFBAQECQUEBAkFBAQECQUEBAkFBAQODaJmFbe3ttfYPH4xFP7jMAs9lcVV3rcrmv8XZQfYru9fDRE3s/Omy3O9atWYmHVqsV/fhTCs55dU3dS6+8ZbFa0lJTHvr83Ro/jSDhVMPt9hi6DNzDQ4KDVeor34bFaj128syZcxeVCoVKpZwzKzspMf5T1NAOp/Pc+bzcC/mJ8XHbttx4jZPQ6XIdP3X2xJlcP42moanlhutXZkxLEyScOhw7cfrs+Xyb3YbgHNRqdXxszKoVORnpwz0GlRLZp3S73Q6HIzAgQOfvP1H3c/DjY8WXyvCK99y5Tevn1+9Vl8v1/IsvowDOWbRgyaL5Y+92TufFgqI339m1cP7sKSMh6r29B4+UlVcmx8evX7c6IiLsKul2DECj0TgdTsaY2+MOD72mt1ybUhK2tet3frDv6PHTdQ2N2Cm9XqlSGRocfCGvYPNN6zfesGao9+Izu+XmDVGRYdwDK5ctCQu78laxb27feamsImfR/FUrl/oPrV0Liy7tP3Q0NDTk9m2bBpLQ4/LsO/ixy+kODwsdDwmx26lVKqS634CPmDxUVNZ8uO9QeWWVv582NS1pkkj4x+dftNps1y3LyVm8gLER7aKmUqlWr1xqsVjsDkfW9PTw8DBBwqmAyWze9f7enXv2Wy3WaanJK5YuDg4K9HBeVHL53IX8y+VV+lff0mjU169aMdQVZmVnpqcl42MeYT8+l1dw7MSZkKDAZTkLhyEh0hstK5rWwTsQA3zR5XKjxf7UPd2LBcU48EWEh3Uaumrq6hctmKtSTvwT//j4KZPRnBSfgIPUCEmIp0VHRd53160OhxMbXwRmpgiFxZd3f3gA9eeynEX33rktJTkRzQ466MtzFqEQ/XDvwYamZnycs7KzoiIjhrrIqIIxeH18wMhYheJanIlBtV/f2Gi1WdXoc6uUKEo7OgzDtO2YgeOXx+3BAXSEDPRBLUGEqaaod+JIfPL0uQ6DITU54Z47tqICkYUfPrbYmOhtm29cunQRUyjKyquKSy5P2HdTKJDkDDj2j6uz9dHA6vUdrm5lPrGoqq5pbGpGFb1y2eK0lKSz5/Lq6htH8kbu8aD91Hd0oPs9Yq0t7XTPJn1HX6PR1NHR4R7lHBWKXn2H3uVyjry7YguM+Ot/Sixhe5v+cmkFaj6kHx4DTda8OTMPHD6Ko3VlTe1qWC7/HfvBnn2Hyiqr/DQ98WuTyXzLpo05Q7hn7+z8oPhSGY78arWqprY+MCDgQkFx6+//gn8BaUtih9OxZOG8NatW9L7maGG1Wp957n9xFN+4bjXeeZ8ezHllVc1Lr74VGRGOw81AyyOb5Qt5hWj2DYYufNJ4qwlxsRvWrUlOSphILZpfXF5RvXTxgs033vDe7r35hSXVtXVzZ89QDq1IL+YVHjlxutNgsNsdyCzUrokJcTetX5sQH9vvzL/87R+GLqPEO4ZfAb/UoaMnSsoqGDAfMa+/bnlvL9rlcm3f+QHekqLX7tv49vRpqXds3TT8d2lqadm950Bzc7PD6fJ4yDXAhkXPZUZmxgD+GPZ+dBi/+6Yb165clnPq7PnTuRf0er3L7cabTE1MuGnD2ri42CG4Z9iz/3BZRaXD7nB73H4aP3w0a1etQO32WSChwWSqra8PDw9NT00ZdLxMT0m+5/atdQ2NWdMzegX3rCfP5B4/nRvg7486VqlSontmMprQtxnqg87kXjhw+JhW6+fxcHxO+EN9Y1PxpVIcO5mXPzZ/rd+K5TnjIaHT6Tx+8ozWX9uPgTI6DF1Hjp9KTky4ZdOGgc6Q2+3OKyj67XPPo5OGPyuVSpSLIcGBlTV1qAhwgJiQBrc77LX1DYaurtSUpOkZ04KCArHjlpZXdRqMEUNEQd7YvuvI8ZPVNXXovWPrSTEzBRrSgsJLD3/xvpnZWb0f2/4DH7e0teOjxPPiYqKRV6UVVecuFgLw7i+qSElM6E1Ct9uTe+7C0ZO5KqVCph86C1o/LZJzWLPMz5y/+Npb71bX1uv1nfLu7vhxwcFBONquW7MSG63PF7fbSy6VHjmGfk2mTleA7dzc0uZ2u6id1eri4stVdfUP3HtnxrTUfh9UWVW9fcf7J8+cb9N3aNRqpUJptdtUSpLxjc0tN65fo/PXfbpJaEQZYTZjh4iMDB/0hIiI8E0b1+FwpenlJERGhj384Odv37pFpVJgT21ta/vo8NH8ghKVasjbvvuOrauvW4YtrtNq33p3d2V17cwZ03EkQ/Z6OGkYt8udkpSoHcBAivcMRstBJ5HxZH9/9E+1+JAGvqpUKHT0sp9iwHCD5zc2tTz/4sv48hOPfS0gMMBqsZ7Py//42OnC4ktqpSolKSE6KnL8DV5T29Dc2qbT6dCIYefDoS0h/uLZ3AvYmQYl4aEjJ/bsP9jQ0JiZMe361Svi42Kkflmz4/19pRUVf3nhnz/8zjdjet3YN772sM1mR3OnYIq/v/ImWk707RcvmMe6rRz+Z3r6tL4eoOoLn7tny80byXoCw7egyaqqrdUMOxqi9cbmqq1riAwP+8q/3I9iAZu3tr7x0MfHi0ouo27089Ogre79aDR+fiEhwWgAj506ixLjofvvxnZA3xiZebGgOPd8XmpSYlJCXO/wnsPp3Hvg8OEjJ9E5Qp2VnZWhUWssFsvuDz+6WFD00itvTUtJnjd31qebhBarTY5qBgYGDuW/DQy6+Gv9587O7tG07frcC3kuz3BZTvPnzII53sbaf+iovbQ8Pj5m7eoVQUN8ru/JWayWS6XlyFXePZb7RlbOJ6wd6IMslojw0O9882s+8blw/uzwsDCaUCkt33/wyOfuvm0itGhRaVnlrBmZOOLgrzOzp8fHxqKsqKmpn52d1S9S1dVlPPDxUfS1UN198f57Zs/Mkoe5BXNnI2P/+dp27O55+UXYjL7hb9WKpb63v/zGdpvNM31a6sYbVgOwYVx0tE49asLlupBXUFFdPcy3MJstHx0+hm4FttUX7rsjZ/FCeaBcON+VnpaMn1tYXHr8ZC5K7rC+M404FlRW16xcuuSB++6Ii42R/4iDwgv/eP3E6Vwcmlva9MhD3/ktLW3VNfVGi+X+dau3btrg64rR0VH/++KrF3DgLy3LysrQTs700hSR0KciVKoe02G3OUwWc28PAU/z89MG6AafiHe7PGPgAw7VIwks2Gy2/3vpNal39vkMD7og7glLVUVPIzY86u7bb+nt/kVGRNy8Ye3lsorC4svYdSiYNL4IB6rl2rr6zq6urOnTcGjHv8RGRwUHB+Jl0eFBXy4stM8sa0NTU0eHwWyxbrxhzfxe4z0OmuvWXHcxrwi1X2tbu9PpGkaDMAqDwchv3Oly8is9zi6jEQ1aSFDQgjmzrlu+1NcsaFQXzJuDOrOg6FJbezsqxiWLFvR+I7qp82Zn37Fts4+BiNTkJBzTz+ReRFnb0dHZm4Q2u90jOSwBgbrexiA9LeWRr3yxq6srLCxErZossnySuaOncs+/sX0Huis9BtNsIZW/5abBmQx8bPznI+AuMi2/sHhgajj6NuhbTlTYD68fHBQ4b/bMAWo8bM7MGRfyixwOp9liCQwIGM+n1Dc0tbS24+iTmJCgk0Y01OeoM9E8nj53AZnWj4SNza3YC5Fg0wckLeEfH/z83TaHHY2A37DpnXI7j2L4GMHD7DKZcTRBtsydlT3wytPSUtC86zs66+qblizqF3Z2JcTHpaUm93tLTFQUyhC9wYDOUe+/x8ZE+fv7q9Tqjw4eDQsOXpazUKHwWovE+FiIj/0sBGZkGrC+YqWxqRllenhEGD4PpVKBwh3NEWqhqR8O8PaCgoMef/TLKID7Ud3pcP7uT/87UcZQCi+p/Afk3Pmp/VCRos1F2Kz2cZIwD/3LsvLsrOm95d+yJQtPnjmXeyG/pq4eX+rdp5GyKPwS4+IGnTePjo6ETwgmowmtOvrPcbHRA18NCgxISow/k3uhtb19wGDHcfTpLbJk6HTagAB/fWdXv9EWG3zRgrmoutGo/vP17e/vPRAVFZmVkYa+9EAmf1pJqJZStFGBWK023x/R6E1PT8WxFkcdFBV79h/MPZ+vHCzUMekkJBpoFs6fqxk4dzxucThAHrPBtByTs9hHaLeHNenu6to6h91htVopAuSvxR6J3dFud7S16/21fuXlVV05xpDg4J6BxuZwu9xh4SFK1dW1qga/Cza+QqnQagdxxrDnINOcTjfKh0Hd70H/ONTTXLtqRUhw0Btvo2dehm4PDpTosgYHBaGgvef2WyaVilPU6IE6nTQ9YEeV7/sjyjzfNJq+o+PEqbPuT3ShIDoSA0k46AMe5kmPnUL43RnDd4+ThOjgtbS0ou/d2q6vrW+QroY3SUOJVtKUuRfy1q9b05uEXJIodskvgqsP+BUGjcbh3aLsZBOUb4IqYOWyJWkpyTWogBubqqtrz17IR2GPv1RUVX/lofuHmRj7dJAQPfvoqMj2jk78VoOr/y6T0WyZcLMz1Ig4fsspdW7usNsH9hiUdkPFCGnRgNuD/1MqlH2jFC6zxcpodFf4+Y0rvye/6NLl8srQ0JBVy5eiWnN2p32o1er6hsYTZ89X19ShIs3MSPO1THhoqM5fW1vfOPyIM/XtjEMGGiWXy91lNA18FW27Xt8ZGBgQGRE+MSJFgV50HB44HuHjuH2bIfdi3t79H1dV15y7kJ81PR0/69NMwqBAdK8Lii+XVVTbbPaB6qK5tbWmpj4gICB04la1eKQpZ5Q0E/51NGoNaiGkYXNb+8BXK6qqhhLV2FNtdltjU0tifFzvv1ss1srqGnyXRqMJCgoa++jg8eAQ3t7egVL/5g1rY2KiOff4PtpoMlXU1FZW1VRWVpmWLPBN20RFhmu12vrGlrbWtpQBWTuvv70TLQM6SOvXrho0dV5uYWnOfYJ5iP6bn0Zt6OoqLimdMzO736utbe1lFVUx0ZEJcXHjH1VZX/IjwsNCE+LjyiuqsXNeLCjacMOaSSLhFOWOorBeMH8O0q/4cun+Q0f6vWo0mo6fOKPv7IyPiUocOhKFfVRO0RhhQnZYaEiAv39hcanNNsFJgMjA+NhY7Hanz17oJ+Gwi+/Zf0gzRF4y+mYtre3v7vqw398LCktOnDmHTNDpdONJN29sbmlqbsUbS05KjI2NVioVqm5g64WGhKD+99dqT5/La23tGT5SUxI1GrVKrdx/6CgOB70viNLs42MnDx4+imPHUPMPEeHheM95hSUDAyHDAO9Hdo+HMaGhIaGLF8zrNBjPXyxs6zveWazWoydOW212HEqSx728+4MPDzz+/R9/+4c/ySso7muKNeh24iPWavxUk7YMYMoCM+qcRfNPnDxbWV27/b3dzc2tOKyGhYXgAyguubzvoyOFly7jcDR7dvacWT0DnsftRp0mTw6qVSqjyeh0OpGINmSV00mGjlwowA40qOXJmJZ6Mb+wrb39j8//ffnShTOzpoeEBKMaVNG6Pt2oesxAg7Zw3qyaurp2vf7Xz/7l3ju2Ykc0mc15+UVvvbebQqlDdCzsrPgVDn18DL/FlpvXo2NmNptPnM7dtecjp8OJQmjD2lXjaefCklI0DuHhYclJCYOSed6s7ILCS9W1qEgbpqWleOOfUVEzMzORvecuFjz31xe3btqQlpqMTVtQVPz2e++ju45tNWtG1lAjy8zMDCQ/WuDfPPt8zuJ52OzoX6GGxOcSoNP1FZB2+WliA5otFosNxTyzWW34FCn/RianQulLuMcesnrlsqMnzlTV1j33/Iu3brkpO2s6fq/yyqrdez7CETA0OGj2zKyEhPFOIcTGRplM5qqauje378QHNHdONo5JXUbjydO5pWWVDrszNTURXapPNwlBmiq9546tf/vH6w2NTQePHM8rKJLjgTj06js68Vi8cB62cm+l2tza/ta7u0rLK1Gk4ajpcDo6OgwR4WF7PzqMHVdywNCZ7Prqww8umDd7kHjX6pX4/FrbS3B4q62nZG60Bza7ff2aVTdvXDdowG3Eo7hi3fWrdu89gG7JuYv56Lur1SpkUYfBgI/qqw9/4TfP/nXwcJ/LnZqStHThghdefr2w5DIOtKjlDAZjW7te66+9bkXOzBmZ42nkyspqFGlLFs1PHSIXHDtxZERYVXVtRUXlkoVzA6S5EOzWd962ubmtNfd8/ulzF5Ci/v40YY3ObXNLa2dn19e/8lDaEEm/iM03rT9y8nSnoevE6bOXSkv9/f2VlB3Kbt1yY+/EGuzcf/v7K2VVNYyRCcQxtF3fiR9dWlH5vSd/QTE5znGwXrl8yZab1ncTUrF08fx779z66lvvoXOLIgLtkpR1ZG1ubUMSr1i6aNuWG1XjDurOmTljzXXL9Ts/KCy51NreHhwUpFDicOnq7DQ0tbTiI8O+NEladEpJiMYqZ/ECpNA7O/ccPXm6paWVAuKco02LiY5+6IF71q9dHd13zQEOnDiunzufj32CS/E9WcN0dRmlOCp1ija9/j6DYah412Nfe/jw0RPIk+JLZTW19TLn587K9nlKsn+PHQivPHhUkgHKIRR4zr4LW+Jio3/w7Uffenf3yTPnOvSdnBJfwpctWXDTxhvwDlE74af3TvDBH5H/SLaM9NRbt97kcrsPHztZcrkMeyQSGLmxdfOGRfPnjmeGpqGxGQeslta2hNiYuJiYQc+JjIxAbwet0KHjp9asXpme5u1YERHhj3z5oQOHjn50+FhFVTXaMWxtpM3iBfNv3rh2Wc7CYWbq4+JinvzOY4eOHkdFik6/rFDw7evWrOjnopdV1Z6/WIC2jksPT3qYik6DB0cxBszDPSiVM/sWmwkMDMSxOykhft+Bj3Mv5vtpNHhxpO60lKSb7lmHwxZ6bv0CY2hiOzo6rTbboO5rl9GM/adfiTck/7bNG/GZonkoLLpUXlGlUCrxoQcFBW5cR0N2elrq5K1KZXwCMyNHhk6DgUyf3tDeoVcyZVRUOCIqInygacJO0KbvQLnChpaOqP1iY6L6yZ7eQO1qMltQbMgFNbApw8NDQ0OCWXdsu13fga9i74+PixnY0Ng+yF4cAsJCEMH9XsX3tuMD7+xCGxsTHRUcGIiPzeFwkG3UqGOjo3yLVrEL4hfv6OzCsTwuJhq7CL4LlZ7VakNRGhoajJ1pnHOkDocT5bHZYsWRrl9OTL94htFkUipVeHv9qIVthSNOS2ur0WjG+0exFxYWFhEeOpL+h2ocP9psMtOiIRwuVSp8pr2tB7Zkc0sbfsQw4RsFUwQHBYYOuHnkDDYzDrhGk5kBp0cRhPcWMjD5G5mj13d2mUzYAgNT1bG18SJIRfSNB/YZfK8BOWqx4BXwPnX+OvwYbMrgoMBJZcQnQMLe3xlvoHc2qcBVAnl+/1puAT4Js2VXIwkFBARAlMEXEBAkFBAQJBQQEBAkFBAQJBQQEBAkFBAQJBQQEBAkFBAQJBQQEBAkFBAQJBQQEBAkFBAQJBQQEBAkFBAQJBQQEBAkFBAQJBQQEBAkFBAQJBQQEBAkFBAQJBQQEJg0/L8AAwDxyGiL+fFa5AAAAABJRU5ErkJggg==;fontColor=#000000;" parent="13" vertex="1">
                    <mxGeometry x="55" y="36.5" width="90" height="70" as="geometry"/>
                </mxCell>
                <mxCell id="2" value="" style="dashed=0;outlineConnect=0;html=1;align=center;labelPosition=center;verticalLabelPosition=bottom;verticalAlign=top;shape=mxgraph.weblogos.github;fontColor=#000000;" parent="13" vertex="1">
                    <mxGeometry width="75" height="75" as="geometry"/>
                </mxCell>
                <mxCell id="12" value="GitHub" style="text;html=1;align=center;verticalAlign=middle;resizable=0;points=[];autosize=1;strokeColor=none;fillColor=none;fontSize=18;fontColor=#000000;" parent="13" vertex="1">
                    <mxGeometry x="8" y="107" width="70" height="30" as="geometry"/>
                </mxCell>
                <mxCell id="15" value="CodePipeline" style="sketch=0;points=[[0,0,0],[0.25,0,0],[0.5,0,0],[0.75,0,0],[1,0,0],[0,1,0],[0.25,1,0],[0.5,1,0],[0.75,1,0],[1,1,0],[0,0.25,0],[0,0.5,0],[0,0.75,0],[1,0.25,0],[1,0.5,0],[1,0.75,0]];outlineConnect=0;fontColor=#000000;gradientColor=#4D72F3;gradientDirection=north;fillColor=#3334B9;strokeColor=#ffffff;dashed=0;verticalLabelPosition=bottom;verticalAlign=top;align=center;html=1;fontSize=16;fontStyle=0;aspect=fixed;shape=mxgraph.aws4.resourceIcon;resIcon=mxgraph.aws4.codepipeline;" parent="1" vertex="1">
                    <mxGeometry x="1010" y="580" width="78" height="78" as="geometry"/>
                </mxCell>
                <mxCell id="24" style="edgeStyle=none;html=1;fontSize=16;fontColor=#000000;" parent="1" source="16" target="4" edge="1">
                    <mxGeometry relative="1" as="geometry"/>
                </mxCell>
                <mxCell id="16" value="CodeDeploy" style="sketch=0;points=[[0,0,0],[0.25,0,0],[0.5,0,0],[0.75,0,0],[1,0,0],[0,1,0],[0.25,1,0],[0.5,1,0],[0.75,1,0],[1,1,0],[0,0.25,0],[0,0.5,0],[0,0.75,0],[1,0.25,0],[1,0.5,0],[1,0.75,0]];outlineConnect=0;fontColor=#000000;gradientColor=#4D72F3;gradientDirection=north;fillColor=#3334B9;strokeColor=#ffffff;dashed=0;verticalLabelPosition=bottom;verticalAlign=top;align=center;html=1;fontSize=16;fontStyle=0;aspect=fixed;shape=mxgraph.aws4.resourceIcon;resIcon=mxgraph.aws4.codedeploy;" parent="1" vertex="1">
                    <mxGeometry x="1230" y="748" width="78" height="78" as="geometry"/>
                </mxCell>
                <mxCell id="22" style="edgeStyle=none;html=1;fontSize=16;fontColor=#000000;" parent="1" source="17" target="18" edge="1">
                    <mxGeometry relative="1" as="geometry"/>
                </mxCell>
                <mxCell id="17" value="CodeCommit" style="sketch=0;points=[[0,0,0],[0.25,0,0],[0.5,0,0],[0.75,0,0],[1,0,0],[0,1,0],[0.25,1,0],[0.5,1,0],[0.75,1,0],[1,1,0],[0,0.25,0],[0,0.5,0],[0,0.75,0],[1,0.25,0],[1,0.5,0],[1,0.75,0]];outlineConnect=0;fontColor=#000000;gradientColor=#4D72F3;gradientDirection=north;fillColor=#3334B9;strokeColor=#ffffff;dashed=0;verticalLabelPosition=bottom;verticalAlign=top;align=center;html=1;fontSize=16;fontStyle=0;aspect=fixed;shape=mxgraph.aws4.resourceIcon;resIcon=mxgraph.aws4.codecommit;" parent="1" vertex="1">
                    <mxGeometry x="800" y="748" width="78" height="78" as="geometry"/>
                </mxCell>
                <mxCell id="23" style="edgeStyle=none;html=1;fontSize=16;fontColor=#000000;" parent="1" source="18" target="16" edge="1">
                    <mxGeometry relative="1" as="geometry"/>
                </mxCell>
                <mxCell id="18" value="CodeBuild" style="sketch=0;points=[[0,0,0],[0.25,0,0],[0.5,0,0],[0.75,0,0],[1,0,0],[0,1,0],[0.25,1,0],[0.5,1,0],[0.75,1,0],[1,1,0],[0,0.25,0],[0,0.5,0],[0,0.75,0],[1,0.25,0],[1,0.5,0],[1,0.75,0]];outlineConnect=0;fontColor=#000000;gradientColor=#4D72F3;gradientDirection=north;fillColor=#3334B9;strokeColor=#ffffff;dashed=0;verticalLabelPosition=bottom;verticalAlign=top;align=center;html=1;fontSize=18;fontStyle=0;aspect=fixed;shape=mxgraph.aws4.resourceIcon;resIcon=mxgraph.aws4.codebuild;" parent="1" vertex="1">
                    <mxGeometry x="1010" y="748" width="78" height="78" as="geometry"/>
                </mxCell>
                <mxCell id="20" style="edgeStyle=none;html=1;entryX=0.5;entryY=0;entryDx=0;entryDy=0;entryPerimeter=0;fontSize=16;fontColor=#000000;" parent="1" source="6" target="17" edge="1">
                    <mxGeometry relative="1" as="geometry"/>
                </mxCell>
                <mxCell id="21" value="【ミラーリング】" style="text;html=1;align=center;verticalAlign=middle;resizable=0;points=[];autosize=1;strokeColor=none;fillColor=none;fontSize=16;fontColor=#000000;" parent="1" vertex="1">
                    <mxGeometry x="845" y="427" width="140" height="20" as="geometry"/>
                </mxCell>
                <mxCell id="25" value="ミラーリング後に[CodePipeline]が発火し、自動デプロイがスタートする" style="text;html=1;align=center;verticalAlign=middle;resizable=0;points=[];autosize=1;strokeColor=none;fillColor=none;fontSize=16;fontColor=#000000;" parent="1" vertex="1">
                    <mxGeometry x="1088" y="560" width="540" height="20" as="geometry"/>
                </mxCell>
            </root>
        </mxGraphModel>
    </diagram>
</mxfile>